<svg width="165" height="165" viewBox="0 0 165 165" fill="none" xmlns="http://www.w3.org/2000/svg">
<g filter="url(#filter0_d_19_18)">
<rect x="28" y="28" width="109" height="109" rx="54.5" fill="#FF552D"/>
</g>
<path d="M37.972 74.444V68.72H47.944V95H41.536V74.444H37.972ZM52.1552 81.5C52.1552 77.372 52.9472 74.12 54.5312 71.744C56.1392 69.368 58.7192 68.18 62.2712 68.18C65.8232 68.18 68.3912 69.368 69.9752 71.744C71.5832 74.12 72.3872 77.372 72.3872 81.5C72.3872 85.676 71.5832 88.952 69.9752 91.328C68.3912 93.704 65.8232 94.892 62.2712 94.892C58.7192 94.892 56.1392 93.704 54.5312 91.328C52.9472 88.952 52.1552 85.676 52.1552 81.5ZM66.3392 81.5C66.3392 79.076 66.0752 77.216 65.5472 75.92C65.0192 74.6 63.9272 73.94 62.2712 73.94C60.6152 73.94 59.5232 74.6 58.9952 75.92C58.4672 77.216 58.2032 79.076 58.2032 81.5C58.2032 83.132 58.2992 84.488 58.4912 85.568C58.6832 86.624 59.0672 87.488 59.6432 88.16C60.2432 88.808 61.1192 89.132 62.2712 89.132C63.4232 89.132 64.2872 88.808 64.8632 88.16C65.4632 87.488 65.8592 86.624 66.0512 85.568C66.2432 84.488 66.3392 83.132 66.3392 81.5ZM75.6395 81.5C75.6395 77.372 76.4315 74.12 78.0155 71.744C79.6235 69.368 82.2035 68.18 85.7555 68.18C89.3075 68.18 91.8755 69.368 93.4595 71.744C95.0675 74.12 95.8715 77.372 95.8715 81.5C95.8715 85.676 95.0675 88.952 93.4595 91.328C91.8755 93.704 89.3075 94.892 85.7555 94.892C82.2035 94.892 79.6235 93.704 78.0155 91.328C76.4315 88.952 75.6395 85.676 75.6395 81.5ZM89.8235 81.5C89.8235 79.076 89.5595 77.216 89.0315 75.92C88.5035 74.6 87.4115 73.94 85.7555 73.94C84.0995 73.94 83.0075 74.6 82.4795 75.92C81.9515 77.216 81.6875 79.076 81.6875 81.5C81.6875 83.132 81.7835 84.488 81.9755 85.568C82.1675 86.624 82.5515 87.488 83.1275 88.16C83.7275 88.808 84.6035 89.132 85.7555 89.132C86.9075 89.132 87.7715 88.808 88.3475 88.16C88.9475 87.488 89.3435 86.624 89.5355 85.568C89.7275 84.488 89.8235 83.132 89.8235 81.5ZM98.6199 75.344C98.6199 73.4 99.1719 71.9 100.276 70.844C101.404 69.788 102.856 69.26 104.632 69.26C106.408 69.26 107.848 69.788 108.952 70.844C110.056 71.9 110.608 73.4 110.608 75.344C110.608 77.288 110.056 78.788 108.952 79.844C107.848 80.9 106.408 81.428 104.632 81.428C102.856 81.428 101.404 80.9 100.276 79.844C99.1719 78.788 98.6199 77.288 98.6199 75.344ZM123.064 69.656L109.204 95H103.264L117.124 69.656H123.064ZM104.596 72.86C103.444 72.86 102.868 73.688 102.868 75.344C102.868 76.976 103.444 77.792 104.596 77.792C105.148 77.792 105.58 77.588 105.892 77.18C106.204 76.772 106.36 76.16 106.36 75.344C106.36 73.688 105.772 72.86 104.596 72.86ZM115.756 89.312C115.756 87.368 116.308 85.868 117.412 84.812C118.516 83.756 119.956 83.228 121.732 83.228C123.508 83.228 124.948 83.756 126.052 84.812C127.156 85.868 127.708 87.368 127.708 89.312C127.708 91.256 127.156 92.756 126.052 93.812C124.948 94.868 123.508 95.396 121.732 95.396C119.956 95.396 118.516 94.868 117.412 93.812C116.308 92.756 115.756 91.256 115.756 89.312ZM121.696 86.828C121.144 86.828 120.712 87.032 120.4 87.44C120.112 87.848 119.968 88.472 119.968 89.312C119.968 90.944 120.544 91.76 121.696 91.76C122.248 91.76 122.68 91.556 122.992 91.148C123.304 90.74 123.46 90.128 123.46 89.312C123.46 88.496 123.304 87.884 122.992 87.476C122.68 87.044 122.248 86.828 121.696 86.828Z" fill="white"/>
<defs>
<filter id="filter0_d_19_18" x="0" y="0" width="165" height="165" filterUnits="userSpaceOnUse" color-interpolation-filters="sRGB">
<feFlood flood-opacity="0" result="BackgroundImageFix"/>
<feColorMatrix in="SourceAlpha" type="matrix" values="0 0 0 0 0 0 0 0 0 0 0 0 0 0 0 0 0 0 127 0" result="hardAlpha"/>
<feMorphology radius="2" operator="dilate" in="SourceAlpha" result="effect1_dropShadow_19_18"/>
<feOffset/>
<feGaussianBlur stdDeviation="13"/>
<feComposite in2="hardAlpha" operator="out"/>
<feColorMatrix type="matrix" values="0 0 0 0 1 0 0 0 0 1 0 0 0 0 1 0 0 0 1 0"/>
<feBlend mode="normal" in2="BackgroundImageFix" result="effect1_dropShadow_19_18"/>
<feBlend mode="normal" in="SourceGraphic" in2="effect1_dropShadow_19_18" result="shape"/>
</filter>
</defs>
</svg>
