<svg width="165" height="165" viewBox="0 0 165 165" fill="none" xmlns="http://www.w3.org/2000/svg">
<g filter="url(#filter0_d_19_8)">
<rect x="28" y="28" width="109" height="109" rx="54.5" fill="#FF552D"/>
</g>
<path d="M74.92 71.184C71.912 69.584 70.408 67.072 70.408 63.648C70.408 61.92 70.856 60.352 71.752 58.944C72.648 57.504 74.008 56.368 75.832 55.536C77.656 54.672 79.896 54.24 82.552 54.24C85.208 54.24 87.432 54.672 89.224 55.536C91.048 56.368 92.408 57.504 93.304 58.944C94.2 60.352 94.648 61.92 94.648 63.648C94.648 65.376 94.232 66.88 93.4 68.16C92.6 69.44 91.512 70.448 90.136 71.184C91.864 72.016 93.192 73.168 94.12 74.64C95.048 76.08 95.512 77.776 95.512 79.728C95.512 82 94.936 83.968 93.784 85.632C92.632 87.264 91.064 88.512 89.08 89.376C87.128 90.24 84.952 90.672 82.552 90.672C80.152 90.672 77.96 90.24 75.976 89.376C74.024 88.512 72.472 87.264 71.32 85.632C70.168 83.968 69.592 82 69.592 79.728C69.592 77.744 70.056 76.032 70.984 74.592C71.912 73.12 73.224 71.984 74.92 71.184ZM86.68 64.896C86.68 63.584 86.296 62.576 85.528 61.872C84.792 61.136 83.8 60.768 82.552 60.768C81.304 60.768 80.296 61.136 79.528 61.872C78.792 62.608 78.424 63.632 78.424 64.944C78.424 66.192 78.808 67.184 79.576 67.92C80.344 68.624 81.336 68.976 82.552 68.976C83.768 68.976 84.76 68.608 85.528 67.872C86.296 67.136 86.68 66.144 86.68 64.896ZM82.552 74.736C81.048 74.736 79.832 75.152 78.904 75.984C77.976 76.784 77.512 77.904 77.512 79.344C77.512 80.688 77.96 81.792 78.856 82.656C79.784 83.52 81.016 83.952 82.552 83.952C84.088 83.952 85.288 83.52 86.152 82.656C87.048 81.792 87.496 80.688 87.496 79.344C87.496 77.936 87.032 76.816 86.104 75.984C85.208 75.152 84.024 74.736 82.552 74.736Z" fill="white"/>
<path d="M54.3331 110L51.2731 105.788V110H48.1951V96.68H51.2731V104.042L54.3151 99.956H58.1131L53.9371 104.996L58.1491 110H54.3331ZM63.8941 110.144C62.9101 110.144 62.0221 109.934 61.2301 109.514C60.4501 109.094 59.8321 108.494 59.3761 107.714C58.9321 106.934 58.7101 106.022 58.7101 104.978C58.7101 103.946 58.9381 103.04 59.3941 102.26C59.8501 101.468 60.4741 100.862 61.2661 100.442C62.0581 100.022 62.9461 99.812 63.9301 99.812C64.9141 99.812 65.8021 100.022 66.5941 100.442C67.3861 100.862 68.0101 101.468 68.4661 102.26C68.9221 103.04 69.1501 103.946 69.1501 104.978C69.1501 106.01 68.9161 106.922 68.4481 107.714C67.9921 108.494 67.3621 109.094 66.5581 109.514C65.7661 109.934 64.8781 110.144 63.8941 110.144ZM63.8941 107.48C64.4821 107.48 64.9801 107.264 65.3881 106.832C65.8081 106.4 66.0181 105.782 66.0181 104.978C66.0181 104.174 65.8141 103.556 65.4061 103.124C65.0101 102.692 64.5181 102.476 63.9301 102.476C63.3301 102.476 62.8321 102.692 62.4361 103.124C62.0401 103.544 61.8421 104.162 61.8421 104.978C61.8421 105.782 62.0341 106.4 62.4181 106.832C62.8141 107.264 63.3061 107.48 63.8941 107.48ZM71.485 97.364H74.635L72.619 102.188H70.549L71.485 97.364ZM79.5211 101.378C79.8211 100.91 80.2351 100.532 80.7631 100.244C81.2911 99.956 81.9091 99.812 82.6171 99.812C83.4451 99.812 84.1951 100.022 84.8671 100.442C85.5391 100.862 86.0671 101.462 86.4511 102.242C86.8471 103.022 87.0451 103.928 87.0451 104.96C87.0451 105.992 86.8471 106.904 86.4511 107.696C86.0671 108.476 85.5391 109.082 84.8671 109.514C84.1951 109.934 83.4451 110.144 82.6171 110.144C81.9211 110.144 81.3031 110 80.7631 109.712C80.2351 109.424 79.8211 109.052 79.5211 108.596V114.788H76.4431V99.956H79.5211V101.378ZM83.9131 104.96C83.9131 104.192 83.6971 103.592 83.2651 103.16C82.8451 102.716 82.3231 102.494 81.6991 102.494C81.0871 102.494 80.5651 102.716 80.1331 103.16C79.7131 103.604 79.5031 104.21 79.5031 104.978C79.5031 105.746 79.7131 106.352 80.1331 106.796C80.5651 107.24 81.0871 107.462 81.6991 107.462C82.3111 107.462 82.8331 107.24 83.2651 106.796C83.6971 106.34 83.9131 105.728 83.9131 104.96ZM91.7379 101.63C92.0979 101.078 92.5479 100.646 93.0879 100.334C93.6279 100.01 94.2279 99.848 94.8879 99.848V103.106H94.0419C93.2739 103.106 92.6979 103.274 92.3139 103.61C91.9299 103.934 91.7379 104.51 91.7379 105.338V110H88.6599V99.956H91.7379V101.63ZM100.931 110.144C99.9472 110.144 99.0592 109.934 98.2672 109.514C97.4872 109.094 96.8692 108.494 96.4132 107.714C95.9692 106.934 95.7472 106.022 95.7472 104.978C95.7472 103.946 95.9752 103.04 96.4312 102.26C96.8872 101.468 97.5112 100.862 98.3032 100.442C99.0952 100.022 99.9832 99.812 100.967 99.812C101.951 99.812 102.839 100.022 103.631 100.442C104.423 100.862 105.047 101.468 105.503 102.26C105.959 103.04 106.187 103.946 106.187 104.978C106.187 106.01 105.953 106.922 105.485 107.714C105.029 108.494 104.399 109.094 103.595 109.514C102.803 109.934 101.915 110.144 100.931 110.144ZM100.931 107.48C101.519 107.48 102.017 107.264 102.425 106.832C102.845 106.4 103.055 105.782 103.055 104.978C103.055 104.174 102.851 103.556 102.443 103.124C102.047 102.692 101.555 102.476 100.967 102.476C100.367 102.476 99.8692 102.692 99.4732 103.124C99.0772 103.544 98.8792 104.162 98.8792 104.978C98.8792 105.782 99.0712 106.4 99.4552 106.832C99.8512 107.264 100.343 107.48 100.931 107.48ZM107.208 104.996C107.208 104 107.412 103.112 107.82 102.332C108.24 101.552 108.798 100.946 109.494 100.514C110.202 100.07 110.97 99.848 111.798 99.848C112.434 99.848 113.004 99.962 113.508 100.19C114.012 100.406 114.42 100.712 114.732 101.108V99.956H117.81V114.788H114.732V108.74C114.384 109.16 113.958 109.496 113.454 109.748C112.962 110 112.398 110.126 111.762 110.126C110.946 110.126 110.19 109.91 109.494 109.478C108.798 109.046 108.24 108.44 107.82 107.66C107.412 106.88 107.208 105.992 107.208 104.996ZM114.732 104.978C114.732 104.438 114.624 103.988 114.408 103.628C114.204 103.256 113.934 102.98 113.598 102.8C113.262 102.608 112.908 102.512 112.536 102.512C112.176 102.512 111.828 102.608 111.492 102.8C111.156 102.98 110.88 103.256 110.664 103.628C110.448 104 110.34 104.456 110.34 104.996C110.34 105.536 110.448 105.992 110.664 106.364C110.88 106.724 111.156 107 111.492 107.192C111.828 107.372 112.176 107.462 112.536 107.462C112.896 107.462 113.244 107.372 113.58 107.192C113.928 107 114.204 106.718 114.408 106.346C114.624 105.974 114.732 105.518 114.732 104.978Z" fill="white"/>
<defs>
<filter id="filter0_d_19_8" x="0" y="0" width="165" height="165" filterUnits="userSpaceOnUse" color-interpolation-filters="sRGB">
<feFlood flood-opacity="0" result="BackgroundImageFix"/>
<feColorMatrix in="SourceAlpha" type="matrix" values="0 0 0 0 0 0 0 0 0 0 0 0 0 0 0 0 0 0 127 0" result="hardAlpha"/>
<feMorphology radius="2" operator="dilate" in="SourceAlpha" result="effect1_dropShadow_19_8"/>
<feOffset/>
<feGaussianBlur stdDeviation="13"/>
<feComposite in2="hardAlpha" operator="out"/>
<feColorMatrix type="matrix" values="0 0 0 0 1 0 0 0 0 1 0 0 0 0 1 0 0 0 1 0"/>
<feBlend mode="normal" in2="BackgroundImageFix" result="effect1_dropShadow_19_8"/>
<feBlend mode="normal" in="SourceGraphic" in2="effect1_dropShadow_19_8" result="shape"/>
</filter>
</defs>
</svg>
