<svg width="38" height="38" viewBox="0 0 38 38" fill="none" xmlns="http://www.w3.org/2000/svg">
<path d="M23.9756 31.8981C24.927 34.2528 23.7815 36.9972 21.2645 37.3364C18.3054 37.7351 15.2697 37.4105 12.4261 36.3587C8.13176 34.7701 4.58424 31.6371 2.4771 27.572C0.369958 23.5069 -0.145305 18.8021 1.03204 14.3773C2.20939 9.95248 4.9947 6.12586 8.84344 3.64552C12.6922 1.16517 17.3276 0.209428 21.8436 0.96514C26.3596 1.72085 30.4313 4.13368 33.2629 7.73192C36.0944 11.3302 37.4821 15.8551 37.1548 20.4221C36.938 23.4463 35.9795 26.3449 34.3939 28.875C33.0453 31.0271 30.0728 30.9366 28.3214 29.0974C26.57 27.2582 26.7925 24.3299 27.5669 21.9111C27.7882 21.2197 27.9285 20.4996 27.9812 19.7646C28.1449 17.4811 27.451 15.2186 26.0353 13.4195C24.6195 11.6203 22.5836 10.4139 20.3256 10.0361C18.0677 9.65822 15.7499 10.1361 13.8256 11.3763C11.9012 12.6164 10.5085 14.5297 9.91987 16.7421C9.33119 18.9545 9.58883 21.307 10.6424 23.3395C11.696 25.372 13.4697 26.9386 15.6169 27.7328C16.308 27.9885 17.0218 28.1582 17.7429 28.2423C20.2655 28.5362 23.0242 29.5433 23.9756 31.8981Z" fill="#FF552D"/>
</svg>
