<svg xmlns="http://www.w3.org/2000/svg" width="150" height="41" fill="none"><g fill="#FF552D" filter="url(#a)"><path d="M36.226 31V11.308l-.72-3.6.72-2.16h5.796l7.272 9.792 1.728 2.988h.36V5.548h6.804v2.16l-.36 3.6V31h-5.652l-9.036-12.672h-.36v2.16L43.138 31h-6.912Zm32.4 0-6.48-19.764-1.08-3.564v-2.16h6.84l5.076 18.936h.72l5.004-18.936h6.768v2.16l-1.08 3.564L77.95 31h-9.324Zm20.44 0-.72-2.16.72-3.6V5.512h17.819l1.8 1.08-2.376 5.04-3.24-.36h-7.523v3.96h9.683v5.58h-4.248l-5.435-.36v4.788h10.763l4.284 3.456L108.469 31H89.066Zm29.825 0V11.272l-7.2.36v-6.12h21.06v6.12l-7.38-.36V25.24l.396 3.6-.396 2.16h-6.48Zm17.1 0V11.272l-.36-3.6.36-2.16h6.516V31h-6.516ZM22.577 28.173c.747 1.848-.152 4.002-2.128 4.268a14.437 14.437 0 1 1 10.305-6.64c-1.059 1.688-3.392 1.617-4.766.174-1.375-1.444-1.2-3.742-.592-5.64a7.218 7.218 0 1 0-7.71 4.969c1.98.23 4.144 1.02 4.891 2.869Z"/></g><defs><filter id="a" width="146.423" height="36.873" x=".084" y="3.697" color-interpolation-filters="sRGB" filterUnits="userSpaceOnUse"><feFlood flood-opacity="0" result="BackgroundImageFix"/><feColorMatrix in="SourceAlpha" result="hardAlpha" values="0 0 0 0 0 0 0 0 0 0 0 0 0 0 0 0 0 0 127 0"/><feOffset dy="4"/><feGaussianBlur stdDeviation="2"/><feComposite in2="hardAlpha" operator="out"/><feColorMatrix values="0 0 0 0 0 0 0 0 0 0 0 0 0 0 0 0 0 0 0.25 0"/><feBlend in2="BackgroundImageFix" result="effect1_dropShadow_6_122"/><feColorMatrix in="SourceAlpha" result="hardAlpha" values="0 0 0 0 0 0 0 0 0 0 0 0 0 0 0 0 0 0 127 0"/><feOffset dy="4"/><feGaussianBlur stdDeviation="2"/><feComposite in2="hardAlpha" operator="out"/><feColorMatrix values="0 0 0 0 0 0 0 0 0 0 0 0 0 0 0 0 0 0 0.25 0"/><feBlend in2="effect1_dropShadow_6_122" result="effect2_dropShadow_6_122"/><feBlend in="SourceGraphic" in2="effect2_dropShadow_6_122" result="shape"/></filter></defs></svg>