<svg xmlns="http://www.w3.org/2000/svg" width="34" height="34" fill="none"><circle cx="16.979" cy="16.632" r="16.132" stroke="#fff"/><g fill="#fff" clip-path="url(#a)"><path d="M18.025 15.972a1.748 1.748 0 0 0-1.421-.736c-.584 0-1.104.292-1.421.736a1.755 1.755 0 0 0 1.421 2.779 1.755 1.755 0 0 0 1.421-2.779Z"/><path d="M19.129 15.985c.127.254.203.66.203 1.015a2.732 2.732 0 0 1-2.728 2.728A2.724 2.724 0 0 1 13.876 17c0-.368.076-.761.203-1.015h-1.535v4.073c0 .533.47 1.002 1.002 1.002h6.116a1.03 1.03 0 0 0 1.002-1.002v-4.073H19.13ZM20.207 13.168h-1.471v1.688h1.674v-1.701l-.203.013Z"/><path d="M20.588 9.006H12.62a4.018 4.018 0 0 0-4.01 4.01v7.98c0 2.196 1.802 3.998 4.01 3.998h7.98a4.018 4.018 0 0 0 4.01-4.01v-7.968c-.012-2.208-1.814-4.01-4.022-4.01Zm.964 6.966v4.086c0 1.066-.824 1.89-1.89 1.89h-6.116a1.863 1.863 0 0 1-1.89-1.89v-6.116c0-1.066.824-1.89 1.89-1.89h6.116c1.066 0 1.89.824 1.89 1.89v2.03Z"/></g><defs><clipPath id="a"><path fill="#fff" d="M8.61 9h16v16h-16z"/></clipPath></defs></svg>