<svg width="75" height="74" viewBox="0 0 75 74" fill="none" xmlns="http://www.w3.org/2000/svg">
<g filter="url(#filter0_d_241_37)">
<rect width="66" height="66" rx="18" fill="white" fill-opacity="0.88" shape-rendering="crispEdges"/>
<g clip-path="url(#clip0_241_37)">
<path d="M43.625 13H22.375C17.1973 13 13 17.1973 13 22.375V43.625C13 48.8027 17.1973 53 22.375 53H43.625C48.8027 53 53 48.8027 53 43.625V22.375C53 17.1973 48.8027 13 43.625 13Z" fill="url(#paint0_radial_241_37)"/>
<path d="M43.625 13H22.375C17.1973 13 13 17.1973 13 22.375V43.625C13 48.8027 17.1973 53 22.375 53H43.625C48.8027 53 53 48.8027 53 43.625V22.375C53 17.1973 48.8027 13 43.625 13Z" fill="url(#paint1_radial_241_37)"/>
<path d="M33.0014 17.375C28.758 17.375 28.2253 17.3936 26.5588 17.4694C24.8953 17.5456 23.7598 17.8089 22.7664 18.1953C21.7386 18.5944 20.8669 19.1283 19.9984 19.997C19.1292 20.8656 18.5953 21.7373 18.195 22.7647C17.8075 23.7584 17.5439 24.8944 17.4691 26.557C17.3945 28.2238 17.375 28.7566 17.375 33.0002C17.375 37.2438 17.3938 37.7747 17.4694 39.4412C17.5459 41.1047 17.8092 42.2402 18.1953 43.2336C18.5947 44.2614 19.1286 45.1331 19.9973 46.0016C20.8656 46.8708 21.7373 47.4059 22.7644 47.805C23.7586 48.1914 24.8942 48.4547 26.5573 48.5309C28.2241 48.6067 28.7563 48.6253 32.9995 48.6253C37.2434 48.6253 37.7744 48.6067 39.4409 48.5309C41.1044 48.4547 42.2411 48.1914 43.2353 47.805C44.2627 47.4059 45.1331 46.8708 46.0012 46.0016C46.8705 45.1331 47.4042 44.2614 47.8047 43.2341C48.1887 42.2402 48.4525 41.1044 48.5306 39.4416C48.6055 37.775 48.625 37.2438 48.625 33.0002C48.625 28.7566 48.6055 28.2241 48.5306 26.5573C48.4525 24.8939 48.1887 23.7586 47.8047 22.7652C47.4042 21.7373 46.8705 20.8656 46.0012 19.997C45.1322 19.128 44.263 18.5941 43.2344 18.1955C42.2383 17.8089 41.1022 17.5455 39.4387 17.4694C37.772 17.3936 37.2414 17.375 32.9966 17.375H33.0014ZM31.5997 20.1908C32.0158 20.1902 32.48 20.1908 33.0014 20.1908C37.1734 20.1908 37.6678 20.2058 39.3153 20.2806C40.8387 20.3503 41.6656 20.6048 42.2164 20.8188C42.9456 21.1019 43.4655 21.4405 44.012 21.9875C44.5589 22.5344 44.8973 23.0552 45.1813 23.7844C45.3952 24.3344 45.65 25.1613 45.7194 26.6847C45.7942 28.3319 45.8105 28.8266 45.8105 32.9966C45.8105 37.1666 45.7942 37.6614 45.7194 39.3084C45.6497 40.8319 45.3952 41.6587 45.1813 42.2089C44.8981 42.9381 44.5589 43.4573 44.012 44.0039C43.4652 44.5508 42.9459 44.8892 42.2164 45.1725C41.6663 45.3873 40.8387 45.6413 39.3153 45.7109C37.6681 45.7858 37.1734 45.802 33.0014 45.802C28.8292 45.802 28.3347 45.7858 26.6877 45.7109C25.1642 45.6406 24.3373 45.3861 23.7861 45.1722C23.057 44.8889 22.5361 44.5505 21.9892 44.0036C21.4423 43.4567 21.1039 42.9372 20.82 42.2077C20.6061 41.6575 20.3512 40.8306 20.2819 39.3072C20.207 37.66 20.192 37.1653 20.192 32.9927C20.192 28.8202 20.207 28.328 20.2819 26.6808C20.3516 25.1573 20.6061 24.3305 20.82 23.7797C21.1033 23.0505 21.4423 22.5297 21.9894 21.9828C22.5363 21.4359 23.057 21.0973 23.7862 20.8136C24.337 20.5988 25.1642 20.3448 26.6877 20.2748C28.1291 20.2097 28.6877 20.1902 31.5997 20.1869V20.1908ZM41.342 22.7852C40.3069 22.7852 39.467 23.6242 39.467 24.6595C39.467 25.6947 40.3069 26.5345 41.342 26.5345C42.3772 26.5345 43.217 25.6947 43.217 24.6595C43.217 23.6244 42.3772 22.7845 41.342 22.7845V22.7852ZM33.0014 24.9759C28.5702 24.9759 24.9773 28.5688 24.9773 33.0002C24.9773 37.4316 28.5702 41.0227 33.0014 41.0227C37.4328 41.0227 41.0244 37.4316 41.0244 33.0002C41.0244 28.5689 37.4325 24.9759 33.0011 24.9759H33.0014ZM33.0014 27.7917C35.8778 27.7917 38.2098 30.1234 38.2098 33.0002C38.2098 35.8766 35.8778 38.2086 33.0014 38.2086C30.1248 38.2086 27.7931 35.8766 27.7931 33.0002C27.7931 30.1234 30.1248 27.7917 33.0014 27.7917Z" fill="white"/>
</g>
</g>
<defs>
<filter id="filter0_d_241_37" x="0" y="0" width="75" height="74" filterUnits="userSpaceOnUse" color-interpolation-filters="sRGB">
<feFlood flood-opacity="0" result="BackgroundImageFix"/>
<feColorMatrix in="SourceAlpha" type="matrix" values="0 0 0 0 0 0 0 0 0 0 0 0 0 0 0 0 0 0 127 0" result="hardAlpha"/>
<feOffset dx="5" dy="4"/>
<feGaussianBlur stdDeviation="2"/>
<feComposite in2="hardAlpha" operator="out"/>
<feColorMatrix type="matrix" values="0 0 0 0 1 0 0 0 0 0.333333 0 0 0 0 0.176471 0 0 0 0.25 0"/>
<feBlend mode="normal" in2="BackgroundImageFix" result="effect1_dropShadow_241_37"/>
<feBlend mode="normal" in="SourceGraphic" in2="effect1_dropShadow_241_37" result="shape"/>
</filter>
<radialGradient id="paint0_radial_241_37" cx="0" cy="0" r="1" gradientUnits="userSpaceOnUse" gradientTransform="translate(23.625 56.0808) rotate(-90) scale(39.643 36.8711)">
<stop stop-color="#FFDD55"/>
<stop offset="0.1" stop-color="#FFDD55"/>
<stop offset="0.5" stop-color="#FF543E"/>
<stop offset="1" stop-color="#C837AB"/>
</radialGradient>
<radialGradient id="paint1_radial_241_37" cx="0" cy="0" r="1" gradientUnits="userSpaceOnUse" gradientTransform="translate(6.29984 15.8814) rotate(78.681) scale(17.7206 73.045)">
<stop stop-color="#3771C8"/>
<stop offset="0.128" stop-color="#3771C8"/>
<stop offset="1" stop-color="#6600FF" stop-opacity="0"/>
</radialGradient>
<clipPath id="clip0_241_37">
<rect width="40" height="40" fill="white" transform="translate(13 13)"/>
</clipPath>
</defs>
</svg>
