<svg width="140" height="140" fill="none" xmlns="http://www.w3.org/2000/svg"><g filter="url(#a)"><path d="M110.833 23.333A11.666 11.666 0 0 1 122.5 35v70a11.668 11.668 0 0 1-11.667 11.667H29.167A11.666 11.666 0 0 1 17.5 105V35a11.667 11.667 0 0 1 11.667-11.667h81.666Zm0 46.667H29.167v35h81.666V70Zm0-35H29.167v23.333h81.666V35Zm-70 5.833a5.833 5.833 0 1 1 0 11.667 5.833 5.833 0 0 1 0-11.667Zm17.5 0a5.833 5.833 0 1 1 0 11.667 5.833 5.833 0 0 1 0-11.667Zm17.5 0a5.833 5.833 0 1 1 0 11.667 5.833 5.833 0 0 1 0-11.667Z" fill="#484848"/></g><defs><filter id="a" x="-2" y="0" width="148" height="148" filterUnits="userSpaceOnUse" color-interpolation-filters="sRGB"><feFlood flood-opacity="0" result="BackgroundImageFix"/><feColorMatrix in="SourceAlpha" values="0 0 0 0 0 0 0 0 0 0 0 0 0 0 0 0 0 0 127 0" result="hardAlpha"/><feOffset dx="2" dy="4"/><feGaussianBlur stdDeviation="2"/><feComposite in2="hardAlpha" operator="out"/><feColorMatrix values="0 0 0 0 1 0 0 0 0 0.333333 0 0 0 0 0.176471 0 0 0 1 0"/><feBlend in2="BackgroundImageFix" result="effect1_dropShadow_24_13"/><feBlend in="SourceGraphic" in2="effect1_dropShadow_24_13" result="shape"/></filter></defs></svg>