<svg xmlns="http://www.w3.org/2000/svg" width="34" height="34" fill="none"><circle cx="16.716" cy="16.632" r="16.132" stroke="#fff"/><g fill="#fff" clip-path="url(#a)"><path d="M19.026 14.6a3.888 3.888 0 0 0-3.9 3.88v3.92a.6.6 0 0 0 .6.6h1.4a.6.6 0 0 0 .6-.6v-3.92a1.292 1.292 0 0 1 1.433-1.287 1.333 1.333 0 0 1 1.167 1.334V22.4a.6.6 0 0 0 .6.6h1.4a.6.6 0 0 0 .6-.6v-3.92a3.887 3.887 0 0 0-3.9-3.88ZM13.326 15.2h-1.8a.6.6 0 0 0-.6.6v6.6a.6.6 0 0 0 .6.6h1.8a.6.6 0 0 0 .6-.6v-6.6a.6.6 0 0 0-.6-.6ZM12.426 14a1.5 1.5 0 1 0 0-3 1.5 1.5 0 0 0 0 3Z"/></g><defs><clipPath id="a"><path fill="#fff" d="M8.926 9h16v16h-16z"/></clipPath></defs></svg>