<svg xmlns="http://www.w3.org/2000/svg" width="326" height="71" fill="none"><g fill="#FF552D" filter="url(#a)"><path d="M92.273 53V26.744l-.96-4.8.96-2.88h7.728l9.696 13.056 2.304 3.984h.48v-17.04h9.072v2.88l-.48 4.8V53h-7.536l-12.048-16.896h-.48v2.88l.48 14.016h-9.216Zm43.2 0-8.64-26.352-1.44-4.752v-2.88h9.12l6.768 25.248h.96l6.672-25.248h9.024v2.88l-1.44 4.752L147.905 53h-12.432Zm27.253 0-.96-2.88.96-4.8V19.016h23.76l2.4 1.44-3.168 6.72-4.32-.48h-10.032v5.28h12.912v7.44h-5.664l-7.248-.48v6.384h14.352l5.712 4.608L188.598 53h-25.872Zm39.767 0V26.696l-9.6.48v-8.16h28.08v8.16l-9.84-.48V45.32l.528 4.8-.528 2.88h-8.64Zm22.8 0V26.696l-.48-4.8.48-2.88h8.688V53h-8.688ZM73.976 48.898c.951 2.355-.195 5.1-2.712 5.438a18.395 18.395 0 1 1 13.13-8.461c-1.349 2.152-4.321 2.062-6.073.222-1.751-1.839-1.528-4.767-.754-7.186a9.198 9.198 0 1 0-9.824 6.331c2.523.294 5.281 1.301 6.233 3.656Z"/></g><defs><filter id="a" width="191.568" height="44.788" x="46.413" y="17.713" color-interpolation-filters="sRGB" filterUnits="userSpaceOnUse"><feFlood flood-opacity="0" result="BackgroundImageFix"/><feColorMatrix in="SourceAlpha" result="hardAlpha" values="0 0 0 0 0 0 0 0 0 0 0 0 0 0 0 0 0 0 127 0"/><feOffset dy="4"/><feGaussianBlur stdDeviation="2"/><feComposite in2="hardAlpha" operator="out"/><feColorMatrix values="0 0 0 0 0 0 0 0 0 0 0 0 0 0 0 0 0 0 0.25 0"/><feBlend in2="BackgroundImageFix" result="effect1_dropShadow_2_67"/><feColorMatrix in="SourceAlpha" result="hardAlpha" values="0 0 0 0 0 0 0 0 0 0 0 0 0 0 0 0 0 0 127 0"/><feOffset dy="4"/><feGaussianBlur stdDeviation="2"/><feComposite in2="hardAlpha" operator="out"/><feColorMatrix values="0 0 0 0 0 0 0 0 0 0 0 0 0 0 0 0 0 0 0.25 0"/><feBlend in2="effect1_dropShadow_2_67" result="effect2_dropShadow_2_67"/><feBlend in="SourceGraphic" in2="effect2_dropShadow_2_67" result="shape"/></filter></defs></svg>