<svg width="238" height="60" viewBox="0 0 238 60" fill="none" xmlns="http://www.w3.org/2000/svg">
<g filter="url(#filter0_dd_302_8)">
<path d="M50.6369 48V21.744L49.6769 16.944L50.6369 14.064H58.3649L68.0609 27.12L70.3649 31.104H70.8449V14.064H79.9169V16.944L79.4369 21.744V48H71.9009L59.8529 31.104H59.3729V33.984L59.8529 48H50.6369ZM93.8369 48L85.1969 21.648L83.7569 16.896V14.016H92.8769L99.6449 39.264H100.605L107.277 14.016H116.301V16.896L114.861 21.648L106.269 48H93.8369ZM121.09 48L120.13 45.12L121.09 40.32V14.016H144.85L147.25 15.456L144.082 22.176L139.762 21.696H129.73V26.976H142.642V34.416H136.978L129.73 33.936V40.32H144.082L149.794 44.928L146.962 48H121.09ZM160.857 48V21.696L151.257 22.176V14.016H179.337V22.176L169.497 21.696V40.32L170.025 45.12L169.497 48H160.857ZM183.657 48V21.696L183.177 16.896L183.657 14.016H192.345V48H183.657Z" fill="#FF552D"/>
<path d="M28.8771 42.2851C29.924 44.6768 28.7365 47.5061 26.1463 47.8335C22.996 48.2318 19.7627 47.9159 16.7348 46.882C12.1822 45.3275 8.42142 42.2616 6.1876 38.2836C3.95378 34.3056 3.40754 29.7016 4.65567 25.3716C5.9038 21.0416 8.85656 17.297 12.9367 14.8698C17.0168 12.4426 21.931 11.5073 26.7184 12.2469C31.5059 12.9864 35.8224 15.3475 38.8242 18.8686C41.826 22.3898 43.2971 26.8178 42.9501 31.287C42.7115 34.3601 41.6249 37.3007 39.8265 39.8426C38.4212 41.829 35.601 41.7298 33.8539 40.0363V40.0363C31.8977 38.1401 32.1632 34.9384 32.9202 32.3213C33.0779 31.7757 33.1807 31.2142 33.225 30.6435C33.3986 28.4089 32.663 26.1949 31.1621 24.4343C29.6612 22.6738 27.5029 21.4932 25.1092 21.1234C22.7155 20.7537 20.2584 21.2213 18.2183 22.4349C16.1783 23.6485 14.7019 25.5208 14.0778 27.6858C13.4538 29.8508 13.7269 32.1528 14.8438 34.1418C15.9607 36.1308 17.8411 37.6638 20.1174 38.441C21.028 38.7519 21.9758 38.933 22.9293 38.9846C25.3391 39.115 27.9095 40.0743 28.8771 42.2851V42.2851Z" fill="#FF552D"/>
</g>
<defs>
<filter id="filter0_dd_302_8" x="-2.82757e-05" y="12" width="196.345" height="44" filterUnits="userSpaceOnUse" color-interpolation-filters="sRGB">
<feFlood flood-opacity="0" result="BackgroundImageFix"/>
<feColorMatrix in="SourceAlpha" type="matrix" values="0 0 0 0 0 0 0 0 0 0 0 0 0 0 0 0 0 0 127 0" result="hardAlpha"/>
<feOffset dy="4"/>
<feGaussianBlur stdDeviation="2"/>
<feComposite in2="hardAlpha" operator="out"/>
<feColorMatrix type="matrix" values="0 0 0 0 0 0 0 0 0 0 0 0 0 0 0 0 0 0 0.25 0"/>
<feBlend mode="normal" in2="BackgroundImageFix" result="effect1_dropShadow_302_8"/>
<feColorMatrix in="SourceAlpha" type="matrix" values="0 0 0 0 0 0 0 0 0 0 0 0 0 0 0 0 0 0 127 0" result="hardAlpha"/>
<feOffset dy="4"/>
<feGaussianBlur stdDeviation="2"/>
<feComposite in2="hardAlpha" operator="out"/>
<feColorMatrix type="matrix" values="0 0 0 0 0 0 0 0 0 0 0 0 0 0 0 0 0 0 0.25 0"/>
<feBlend mode="normal" in2="effect1_dropShadow_302_8" result="effect2_dropShadow_302_8"/>
<feBlend mode="normal" in="SourceGraphic" in2="effect2_dropShadow_302_8" result="shape"/>
</filter>
</defs>
</svg>
