<svg width="326" height="71" viewBox="0 0 326 71" fill="none" xmlns="http://www.w3.org/2000/svg">
<path d="M92.2732 53V26.744L91.3132 21.944L92.2732 19.064H100.001L109.697 32.12L112.001 36.104H112.481V19.064H121.553V21.944L121.073 26.744V53H113.537L101.489 36.104H101.009V38.984L101.489 53H92.2732ZM135.473 53L126.833 26.648L125.393 21.896V19.016H134.513L141.281 44.264H142.241L148.913 19.016H157.937V21.896L156.497 26.648L147.905 53H135.473ZM162.726 53L161.766 50.12L162.726 45.32V19.016H186.486L188.886 20.456L185.718 27.176L181.398 26.696H171.366V31.976H184.278V39.416H178.614L171.366 38.936V45.32H185.718L191.43 49.928L188.598 53H162.726ZM202.493 53V26.696L192.893 27.176V19.016H220.973V27.176L211.133 26.696V45.32L211.661 50.12L211.133 53H202.493ZM225.293 53V26.696L224.813 21.896L225.293 19.016H233.981V53H225.293Z" fill="#FF552D"/>
<path d="M73.9756 48.8981C74.927 51.2528 73.7815 53.9972 71.2645 54.3364C68.3054 54.7351 65.2697 54.4105 62.4261 53.3587C58.1318 51.7701 54.5843 48.6371 52.4771 44.572C50.37 40.5069 49.8547 35.8021 51.0321 31.3773C52.2094 26.9525 54.9947 23.1259 58.8435 20.6455C62.6922 18.1652 67.3277 17.2094 71.8436 17.9651C76.3596 18.7209 80.4313 21.1337 83.2629 24.7319C86.0944 28.3302 87.4821 32.8551 87.1548 37.4221C86.938 40.4463 85.9795 43.3449 84.394 45.875C83.0453 48.0271 80.0729 47.9366 78.3214 46.0974C76.57 44.2582 76.7925 41.3299 77.5669 38.9111C77.7882 38.2197 77.9286 37.4996 77.9812 36.7646C78.1449 34.4811 77.4511 32.2186 76.0353 30.4195C74.6195 28.6203 72.5836 27.4139 70.3257 27.0361C68.0677 26.6582 65.75 27.1361 63.8256 28.3763C61.9012 29.6164 60.5086 31.5297 59.9199 33.7421C59.3312 35.9545 59.5888 38.307 60.6424 40.3395C61.696 42.372 63.4697 43.9386 65.6169 44.7328C66.308 44.9885 67.0218 45.1582 67.7429 45.2423C70.2655 45.5362 73.0242 46.5433 73.9756 48.8981Z" fill="#FF552D"/>
</svg>
