<svg width="75" height="74" viewBox="0 0 75 74" fill="none" xmlns="http://www.w3.org/2000/svg">
<g filter="url(#filter0_d_40_156)">
<rect width="66" height="66" rx="18" fill="white" fill-opacity="0.88" shape-rendering="crispEdges"/>
<path d="M21.0444 30.3111C24.2444 36.6 29.4 41.7333 35.6889 44.9556L40.5778 40.0667C41.1778 39.4667 42.0667 39.2667 42.8444 39.5333C45.3333 40.3556 48.0222 40.8 50.7778 40.8C52 40.8 53 41.8 53 43.0222V50.7778C53 52 52 53 50.7778 53C29.9111 53 13 36.0889 13 15.2222C13 14 14 13 15.2222 13H23C24.2222 13 25.2222 14 25.2222 15.2222C25.2222 18 25.6667 20.6667 26.4889 23.1556C26.7333 23.9333 26.5556 24.8 25.9333 25.4222L21.0444 30.3111Z" fill="#FF552D"/>
</g>
<defs>
<filter id="filter0_d_40_156" x="0" y="0" width="75" height="74" filterUnits="userSpaceOnUse" color-interpolation-filters="sRGB">
<feFlood flood-opacity="0" result="BackgroundImageFix"/>
<feColorMatrix in="SourceAlpha" type="matrix" values="0 0 0 0 0 0 0 0 0 0 0 0 0 0 0 0 0 0 127 0" result="hardAlpha"/>
<feOffset dx="5" dy="4"/>
<feGaussianBlur stdDeviation="2"/>
<feComposite in2="hardAlpha" operator="out"/>
<feColorMatrix type="matrix" values="0 0 0 0 1 0 0 0 0 0.333333 0 0 0 0 0.176471 0 0 0 0.25 0"/>
<feBlend mode="normal" in2="BackgroundImageFix" result="effect1_dropShadow_40_156"/>
<feBlend mode="normal" in="SourceGraphic" in2="effect1_dropShadow_40_156" result="shape"/>
</filter>
</defs>
</svg>
