<svg width="140" height="140" fill="none" xmlns="http://www.w3.org/2000/svg"><g filter="url(#a)"><path d="M122.325 42.408a5.812 5.812 0 0 0 1.263-6.338 5.812 5.812 0 0 0-1.263-1.887l-16.508-16.508a5.814 5.814 0 0 0-8.225 0L71.4 43.867 48.708 21.175c-4.55-4.55-11.958-4.55-16.508 0L21.117 32.258c-4.55 4.55-4.55 11.959 0 16.509l22.691 22.691L17.5 97.767V122.5h24.733L68.6 96.133l22.692 22.692c5.541 5.542 13.008 3.5 16.508 0l11.083-11.083c4.55-4.55 4.55-11.959 0-16.509L96.192 68.542l26.133-26.134ZM29.4 40.483 40.425 29.4l7.408 7.408-6.883 6.942 8.225 8.225 6.942-6.942 7 7-11.084 11.084L29.4 40.483Zm65.508 43.4-6.941 6.942 8.225 8.225 6.941-6.942 7.409 7.409L99.458 110.6 76.767 87.908 87.85 76.825l7.058 7.058Zm-57.516 26.95h-8.225v-8.225L85.225 46.55l7.583 7.583.642.642-56.058 56.058ZM93.45 38.267l8.225-8.225 8.225 8.225-8.225 8.225-8.225-8.225Z" fill="#484848"/></g><defs><filter id="a" x="-2" y="0" width="148" height="148" filterUnits="userSpaceOnUse" color-interpolation-filters="sRGB"><feFlood flood-opacity="0" result="BackgroundImageFix"/><feColorMatrix in="SourceAlpha" values="0 0 0 0 0 0 0 0 0 0 0 0 0 0 0 0 0 0 127 0" result="hardAlpha"/><feOffset dx="2" dy="4"/><feGaussianBlur stdDeviation="2"/><feComposite in2="hardAlpha" operator="out"/><feColorMatrix values="0 0 0 0 1 0 0 0 0 0.333333 0 0 0 0 0.176471 0 0 0 1 0"/><feBlend in2="BackgroundImageFix" result="effect1_dropShadow_24_16"/><feBlend in="SourceGraphic" in2="effect1_dropShadow_24_16" result="shape"/></filter></defs></svg>