<svg width="165" height="165" viewBox="0 0 165 165" fill="none" xmlns="http://www.w3.org/2000/svg">
<g filter="url(#filter0_d_303_7)">
<rect x="28" y="28" width="109" height="109" rx="54.5" fill="#FF552D"/>
</g>
<path d="M74.92 80.184C71.912 78.584 70.408 76.072 70.408 72.648C70.408 70.92 70.856 69.352 71.752 67.944C72.648 66.504 74.008 65.368 75.832 64.536C77.656 63.672 79.896 63.24 82.552 63.24C85.208 63.24 87.432 63.672 89.224 64.536C91.048 65.368 92.408 66.504 93.304 67.944C94.2 69.352 94.648 70.92 94.648 72.648C94.648 74.376 94.232 75.88 93.4 77.16C92.6 78.44 91.512 79.448 90.136 80.184C91.864 81.016 93.192 82.168 94.12 83.64C95.048 85.08 95.512 86.776 95.512 88.728C95.512 91 94.936 92.968 93.784 94.632C92.632 96.264 91.064 97.512 89.08 98.376C87.128 99.24 84.952 99.672 82.552 99.672C80.152 99.672 77.96 99.24 75.976 98.376C74.024 97.512 72.472 96.264 71.32 94.632C70.168 92.968 69.592 91 69.592 88.728C69.592 86.744 70.056 85.032 70.984 83.592C71.912 82.12 73.224 80.984 74.92 80.184ZM86.68 73.896C86.68 72.584 86.296 71.576 85.528 70.872C84.792 70.136 83.8 69.768 82.552 69.768C81.304 69.768 80.296 70.136 79.528 70.872C78.792 71.608 78.424 72.632 78.424 73.944C78.424 75.192 78.808 76.184 79.576 76.92C80.344 77.624 81.336 77.976 82.552 77.976C83.768 77.976 84.76 77.608 85.528 76.872C86.296 76.136 86.68 75.144 86.68 73.896ZM82.552 83.736C81.048 83.736 79.832 84.152 78.904 84.984C77.976 85.784 77.512 86.904 77.512 88.344C77.512 89.688 77.96 90.792 78.856 91.656C79.784 92.52 81.016 92.952 82.552 92.952C84.088 92.952 85.288 92.52 86.152 91.656C87.048 90.792 87.496 89.688 87.496 88.344C87.496 86.936 87.032 85.816 86.104 84.984C85.208 84.152 84.024 83.736 82.552 83.736Z" fill="white"/>
<defs>
<filter id="filter0_d_303_7" x="0" y="0" width="165" height="165" filterUnits="userSpaceOnUse" color-interpolation-filters="sRGB">
<feFlood flood-opacity="0" result="BackgroundImageFix"/>
<feColorMatrix in="SourceAlpha" type="matrix" values="0 0 0 0 0 0 0 0 0 0 0 0 0 0 0 0 0 0 127 0" result="hardAlpha"/>
<feMorphology radius="2" operator="dilate" in="SourceAlpha" result="effect1_dropShadow_303_7"/>
<feOffset/>
<feGaussianBlur stdDeviation="13"/>
<feComposite in2="hardAlpha" operator="out"/>
<feColorMatrix type="matrix" values="0 0 0 0 1 0 0 0 0 1 0 0 0 0 1 0 0 0 1 0"/>
<feBlend mode="normal" in2="BackgroundImageFix" result="effect1_dropShadow_303_7"/>
<feBlend mode="normal" in="SourceGraphic" in2="effect1_dropShadow_303_7" result="shape"/>
</filter>
</defs>
</svg>
