<svg width="46" height="27" viewBox="0 0 46 27" fill="none" xmlns="http://www.w3.org/2000/svg">
<path d="M44.2333 5.70836L24.6333 25.3667C24.4 25.6 24.1472 25.7649 23.875 25.8614C23.6028 25.9594 23.3111 26.0084 23 26.0084C22.6889 26.0084 22.3972 25.9594 22.125 25.8614C21.8528 25.7649 21.6 25.6 21.3667 25.3667L1.70833 5.70836C1.16388 5.16392 0.891662 4.48336 0.891662 3.6667C0.891662 2.85003 1.18333 2.15003 1.76666 1.5667C2.34999 0.983364 3.03055 0.691698 3.80833 0.691698C4.58611 0.691698 5.26666 0.983364 5.85 1.5667L23 18.7167L40.15 1.5667C40.6944 1.02225 41.3649 0.750029 42.1613 0.750029C42.9593 0.750029 43.65 1.04169 44.2333 1.62503C44.8167 2.20836 45.1083 2.88892 45.1083 3.66669C45.1083 4.44447 44.8167 5.12503 44.2333 5.70836Z" fill="#FF552D"/>
</svg>
