<svg xmlns="http://www.w3.org/2000/svg" width="84" height="120" fill="none"><g filter="url(#a)"><path stroke="#484848" stroke-linecap="round" stroke-linejoin="round" stroke-width="6" d="M28.333 3.5H16.667A11.667 11.667 0 0 0 5 15.167v81.666A11.667 11.667 0 0 0 16.667 108.5h46.666A11.666 11.666 0 0 0 75 96.833V15.167A11.667 11.667 0 0 0 63.333 3.5H51.667m-23.334 0h23.334m-23.334 0v5.833M51.667 3.5v5.833m0 0a5.833 5.833 0 0 1-5.834 5.834H34.167a5.833 5.833 0 0 1-5.834-5.834m23.334 0H28.333M22.5 32.673v-.006m0 17.505v-.005m17.5.005v-.005m0-17.495v-.005m17.5.005v-.005m0 17.505v-.005m-35 17.505v-.005m17.5.005v-.005" shape-rendering="crispEdges"/></g><defs><filter id="a" width="84" height="119" x="0" y=".5" color-interpolation-filters="sRGB" filterUnits="userSpaceOnUse"><feFlood flood-opacity="0" result="BackgroundImageFix"/><feColorMatrix in="SourceAlpha" result="hardAlpha" values="0 0 0 0 0 0 0 0 0 0 0 0 0 0 0 0 0 0 127 0"/><feOffset dx="2" dy="4"/><feGaussianBlur stdDeviation="2"/><feComposite in2="hardAlpha" operator="out"/><feColorMatrix values="0 0 0 0 1 0 0 0 0 0.333333 0 0 0 0 0.176471 0 0 0 1 0"/><feBlend in2="BackgroundImageFix" result="effect1_dropShadow_23_17"/><feBlend in="SourceGraphic" in2="effect1_dropShadow_23_17" result="shape"/></filter></defs></svg>