<svg xmlns="http://www.w3.org/2000/svg" width="35" height="37" fill="none"><path stroke="#FF552D" stroke-linecap="round" stroke-linejoin="round" stroke-width="3.667" d="M21.575 7.917a7.385 7.385 0 0 1 3.867 2.172A8.063 8.063 0 0 1 27.5 14.17l-5.925-6.254Zm0-6.334c3.044.357 5.882 1.796 8.05 4.08 2.166 2.285 3.533 5.28 3.875 8.492L21.575 1.583ZM32 26.79v4.75c.002.441-.084.877-.251 1.282a3.17 3.17 0 0 1-.72 1.064 2.97 2.97 0 0 1-1.068.667 2.851 2.851 0 0 1-1.231.154c-4.616-.53-9.05-2.195-12.945-4.861-3.624-2.431-6.697-5.675-9-9.5-2.535-4.13-4.113-8.834-4.605-13.728-.037-.438.012-.879.145-1.295.133-.417.346-.8.627-1.125a3.01 3.01 0 0 1 1.004-.761c.38-.178.793-.27 1.209-.27h4.5a2.907 2.907 0 0 1 1.986.765 3.219 3.219 0 0 1 1.014 1.958c.19 1.52.542 3.013 1.05 4.45.202.566.245 1.182.126 1.774a3.223 3.223 0 0 1-.801 1.566l-1.905 2.01c2.135 3.965 5.245 7.247 9 9.5l1.905-2.01c.408-.426.923-.72 1.484-.845a2.852 2.852 0 0 1 1.681.133c1.36.535 2.775.907 4.215 1.108a2.961 2.961 0 0 1 1.87 1.088c.476.593.728 1.35.71 2.126Z"/></svg>