<svg xmlns="http://www.w3.org/2000/svg" width="34" height="33" fill="none"><g clip-path="url(#a)"><path fill="#fff" d="M8.08 16.326c4.81-2.096 8.017-3.478 9.62-4.145 4.585-1.906 5.536-2.237 6.157-2.248.137-.002.441.031.64.192a.71.71 0 0 1 .234.447c.02.128.05.42.026.65-.247 2.608-1.323 8.94-1.87 11.862-.229 1.236-.685 1.65-1.126 1.691-.959.088-1.686-.633-2.614-1.241-1.451-.952-2.271-1.545-3.681-2.473-1.63-1.074-.573-1.664.355-2.628.243-.253 4.466-4.093 4.545-4.441.01-.044.021-.206-.077-.292-.095-.086-.237-.056-.34-.033-.147.033-2.465 1.566-6.961 4.6-.657.452-1.253.673-1.79.661-.587-.012-1.721-.333-2.565-.607-1.03-.336-1.853-.513-1.781-1.084.036-.297.446-.6 1.227-.911Z"/></g><rect width="32" height="32" x="1.11" y=".5" stroke="#fff" stroke-linejoin="round" rx="16"/><defs><clipPath id="a"><rect width="33" height="33" x=".61" fill="#fff" rx="16.5"/></clipPath></defs></svg>